<svg width="116" height="102" viewBox="0 0 116 102" fill="none" xmlns="http://www.w3.org/2000/svg">
<path id="Vector" d="M64.712 0C93.0459 0 116 22.95 116 51C116 79.05 93.0459 102 64.712 102C46.7279 102 30.9982 92.718 21.8269 78.693L29.9223 72.318C37.1466 83.997 50.0071 91.8 64.7633 91.8C75.6343 91.8 86.0601 87.5014 93.7471 79.85C101.434 72.1985 105.753 61.8208 105.753 51C105.753 40.1792 101.434 29.8015 93.7471 22.15C86.0601 14.4986 75.6343 10.2 64.7633 10.2C43.8587 10.2 26.6431 25.806 24.1325 45.9H38.2738L19.1113 64.923L0 45.9H13.7827C16.3445 20.145 38.1714 0 64.712 0ZM79.8781 42.024C82.4399 42.075 84.5406 44.115 84.5406 46.716V70.227C84.5406 72.777 82.4399 74.919 79.8269 74.919H51.4929C48.8799 74.919 46.7792 72.777 46.7792 70.227V46.716C46.7792 44.115 48.8799 42.075 51.4417 42.024V36.873C51.4417 29.07 57.8463 22.746 65.6343 22.746C73.4735 22.746 79.8781 29.07 79.8781 36.873V42.024ZM65.6343 29.886C61.7915 29.886 58.6148 32.997 58.6148 36.873V42.024H72.7049V36.873C72.7049 32.997 69.5283 29.886 65.6343 29.886Z" fill="white"/>
</svg>
