<svg width="17" height="21" viewBox="0 0 17 21" fill="none" xmlns="http://www.w3.org/2000/svg">
<g id="evaEdit2Fill0">
<g id="evaEdit2Fill1">
<path id="evaEdit2Fill2" d="M15.8 18.8939H1.05747C0.778183 18.8939 0.510338 19.0049 0.312855 19.2023C0.115371 19.3998 0.00442588 19.6677 0.00442588 19.947C0.00442588 20.2262 0.115371 20.4941 0.312855 20.6916C0.510338 20.8891 0.778183 21 1.05747 21H15.8C16.0793 21 16.3472 20.8891 16.5447 20.6916C16.7421 20.4941 16.8531 20.2262 16.8531 19.947C16.8531 19.6677 16.7421 19.3998 16.5447 19.2023C16.3472 19.0049 16.0793 18.8939 15.8 18.8939ZM1.05747 16.7878H1.15224L5.54342 16.3877C6.02445 16.3398 6.47435 16.1278 6.8176 15.7874L16.295 6.31008C16.6628 5.92147 16.8616 5.40289 16.8478 4.86797C16.834 4.33306 16.6087 3.82543 16.2213 3.45633L13.3359 0.571002C12.9593 0.217281 12.4659 0.0143209 11.9494 0.000729502C11.4329 -0.0128619 10.9295 0.163864 10.5348 0.497289L1.05747 9.97466C0.717088 10.3179 0.505152 10.7678 0.457233 11.2488L0.00442588 15.64C-0.00975968 15.7943 0.0102538 15.9497 0.0630394 16.0953C0.115825 16.241 0.200083 16.3731 0.309808 16.4825C0.408204 16.58 0.524898 16.6573 0.653198 16.7097C0.781498 16.7621 0.91888 16.7886 1.05747 16.7878ZM11.8722 2.04526L14.747 4.92006L12.6409 6.97349L9.81877 4.15134L11.8722 2.04526Z" fill="white"/>
</g>
</g>
</svg>
