<svg width="42" height="48" viewBox="0 0 42 48" fill="none" xmlns="http://www.w3.org/2000/svg">
<path id="Vector" d="M0.00012207 43.5C0.00012207 45.9844 2.01575 48 4.50012 48H37.5001C39.9845 48 42.0001 45.9844 42.0001 43.5V18H0.00012207V43.5ZM30.0001 25.125C30.0001 24.5063 30.5064 24 31.1251 24H34.8751C35.4939 24 36.0001 24.5063 36.0001 25.125V28.875C36.0001 29.4937 35.4939 30 34.8751 30H31.1251C30.5064 30 30.0001 29.4937 30.0001 28.875V25.125ZM30.0001 37.125C30.0001 36.5062 30.5064 36 31.1251 36H34.8751C35.4939 36 36.0001 36.5062 36.0001 37.125V40.875C36.0001 41.4938 35.4939 42 34.8751 42H31.1251C30.5064 42 30.0001 41.4938 30.0001 40.875V37.125ZM18.0001 25.125C18.0001 24.5063 18.5064 24 19.1251 24H22.8751C23.4939 24 24.0001 24.5063 24.0001 25.125V28.875C24.0001 29.4937 23.4939 30 22.8751 30H19.1251C18.5064 30 18.0001 29.4937 18.0001 28.875V25.125ZM18.0001 37.125C18.0001 36.5062 18.5064 36 19.1251 36H22.8751C23.4939 36 24.0001 36.5062 24.0001 37.125V40.875C24.0001 41.4938 23.4939 42 22.8751 42H19.1251C18.5064 42 18.0001 41.4938 18.0001 40.875V37.125ZM6.00012 25.125C6.00012 24.5063 6.50637 24 7.12512 24H10.8751C11.4939 24 12.0001 24.5063 12.0001 25.125V28.875C12.0001 29.4937 11.4939 30 10.8751 30H7.12512C6.50637 30 6.00012 29.4937 6.00012 28.875V25.125ZM6.00012 37.125C6.00012 36.5062 6.50637 36 7.12512 36H10.8751C11.4939 36 12.0001 36.5062 12.0001 37.125V40.875C12.0001 41.4938 11.4939 42 10.8751 42H7.12512C6.50637 42 6.00012 41.4938 6.00012 40.875V37.125ZM37.5001 6H33.0001V1.5C33.0001 0.675 32.3251 0 31.5001 0H28.5001C27.6751 0 27.0001 0.675 27.0001 1.5V6H15.0001V1.5C15.0001 0.675 14.3251 0 13.5001 0H10.5001C9.67512 0 9.00012 0.675 9.00012 1.5V6H4.50012C2.01575 6 0.00012207 8.01562 0.00012207 10.5V15H42.0001V10.5C42.0001 8.01562 39.9845 6 37.5001 6Z" fill="#12AAEB"/>
</svg>
