<svg width="45" height="45" viewBox="0 0 45 45" fill="none" xmlns="http://www.w3.org/2000/svg">
<g id="Group 45">
<circle id="Ellipse 1" cx="22.5" cy="22.5" r="22.5" fill="#12AAEB"/>
<path id="Vector" d="M23 7C21.2034 7 19.4803 7.69527 18.2099 8.93286C16.9395 10.1705 16.2258 11.849 16.2258 13.5992C16.2258 15.3494 16.9395 17.028 18.2099 18.2656C19.4803 19.5031 21.2034 20.1984 23 20.1984C24.7966 20.1984 26.5197 19.5031 27.7901 18.2656C29.0605 17.028 29.7742 15.3494 29.7742 13.5992C29.7742 11.849 29.0605 10.1705 27.7901 8.93286C26.5197 7.69527 24.7966 7 23 7ZM15.7742 23.718C13.9776 23.718 12.2545 24.4133 10.9841 25.6509C9.71371 26.8884 9 28.567 9 30.3172V32.4078C9 33.7347 9.98632 34.8645 11.3303 35.0774C19.0583 36.3075 26.9417 36.3075 34.6697 35.0774C35.3201 34.9743 35.9117 34.6491 36.3386 34.16C36.7656 33.6709 37 33.0498 37 32.4078V30.3172C37 28.567 36.2863 26.8884 35.0159 25.6509C33.7455 24.4133 32.0224 23.718 30.2258 23.718H29.6116C29.2774 23.718 28.945 23.7708 28.6289 23.8693L27.0645 24.3674C24.4234 25.2072 21.5766 25.2072 18.9355 24.3674L17.3711 23.8693C17.0543 23.7689 16.7233 23.7178 16.3902 23.718H15.7742Z" fill="white"/>
</g>
</svg>
