<svg width="42" height="42" viewBox="0 0 42 42" fill="none" xmlns="http://www.w3.org/2000/svg">
<path id="Vector" d="M18.8082 7.87336H25.3839L32.5952 0.64768C32.799 0.442452 33.0414 0.279558 33.3085 0.168395C33.5756 0.0572323 33.8621 0 34.1514 0C34.4408 0 34.7273 0.0572323 34.9944 0.168395C35.2615 0.279558 35.5039 0.442452 35.7077 0.64768L41.3627 6.31874C41.771 6.72899 42.0001 7.28395 42.0001 7.86241C42.0001 8.44087 41.771 8.99583 41.3627 9.40607L36.3433 14.4422H18.8082V18.8214C18.8082 19.4021 18.5773 19.959 18.1662 20.3696C17.7552 20.7803 17.1977 21.0109 16.6163 21.0109C16.035 21.0109 15.4775 20.7803 15.0665 20.3696C14.6554 19.959 14.4245 19.4021 14.4245 18.8214V12.2526C14.4245 11.0911 14.8863 9.97725 15.7084 9.15599C16.5306 8.33473 17.6456 7.87336 18.8082 7.87336ZM5.65692 18.8214V27.5797L0.637506 32.5939C0.229266 33.0042 0.00012207 33.5591 0.00012207 34.1376C0.00012207 34.7161 0.229266 35.271 0.637506 35.6813L6.29257 41.3523C6.49633 41.5576 6.73876 41.7204 7.00586 41.8316C7.27296 41.9428 7.55945 42 7.84881 42C8.13816 42 8.42465 41.9428 8.69176 41.8316C8.95886 41.7204 9.20128 41.5576 9.40505 41.3523L18.8082 31.9589H27.5758C28.1571 31.9589 28.7146 31.7283 29.1257 31.3176C29.5367 30.907 29.7677 30.3501 29.7677 29.7693V27.5797H31.9595C32.5409 27.5797 33.0984 27.3491 33.5094 26.9384C33.9205 26.5278 34.1514 25.9709 34.1514 25.3901V23.2005H36.3433C36.9246 23.2005 37.4822 22.9699 37.8932 22.5592C38.3043 22.1486 38.5352 21.5917 38.5352 21.0109V18.8214H23.192V21.0109C23.192 22.1724 22.7301 23.2862 21.908 24.1075C21.0859 24.9288 19.9709 25.3901 18.8082 25.3901H14.4245C13.2618 25.3901 12.1468 24.9288 11.3247 24.1075C10.5026 23.2862 10.0407 22.1724 10.0407 21.0109V14.4422L5.65692 18.8214Z" fill="#12AAEB"/>
</svg>
