<svg width="46" height="46" viewBox="0 0 46 46" fill="none" xmlns="http://www.w3.org/2000/svg">
<circle cx="23" cy="23" r="23" fill="#12AAEB"/>
<path d="M32.4422 33.7664H14.5959C14.2578 33.7664 13.9336 33.9007 13.6945 34.1397C13.4555 34.3788 13.3212 34.703 13.3212 35.0411C13.3212 35.3792 13.4555 35.7034 13.6945 35.9425C13.9336 36.1815 14.2578 36.3158 14.5959 36.3158H32.4422C32.7802 36.3158 33.1045 36.1815 33.3435 35.9425C33.5826 35.7034 33.7169 35.3792 33.7169 35.0411C33.7169 34.703 33.5826 34.3788 33.3435 34.1397C33.1045 33.9007 32.7802 33.7664 32.4422 33.7664ZM14.5959 31.2169H14.7106L20.0263 30.7325C20.6085 30.6745 21.1532 30.4179 21.5687 30.0059L33.0413 18.5333C33.4866 18.0629 33.7272 17.4351 33.7105 16.7876C33.6938 16.1401 33.421 15.5256 32.9521 15.0788L29.4593 11.586C29.0034 11.1578 28.4061 10.9121 27.7809 10.8957C27.1557 10.8792 26.5462 11.0931 26.0685 11.4968L14.5959 22.9694C14.1838 23.3849 13.9273 23.9295 13.8693 24.5118L13.3212 29.8274C13.304 30.0141 13.3282 30.2023 13.3921 30.3786C13.456 30.5549 13.558 30.7149 13.6908 30.8472C13.8099 30.9654 13.9512 31.0588 14.1065 31.1223C14.2618 31.1857 14.4281 31.2179 14.5959 31.2169ZM27.6874 13.3706L31.1674 16.8506L28.618 19.3364L25.2017 15.9201L27.6874 13.3706Z" fill="white"/>
</svg>
