<svg width="96" height="96" viewBox="0 0 96 96" fill="none" xmlns="http://www.w3.org/2000/svg">
<path d="M81.6 9.6H76.8V4.8C76.8 1.92 74.88 0 72 0C69.12 0 67.2 1.92 67.2 4.8V9.6H28.8V4.8C28.8 1.92 26.88 0 24 0C21.12 0 19.2 1.92 19.2 4.8V9.6H14.4C6.24 9.6 0 15.84 0 24V28.8H96V24C96 15.84 89.76 9.6 81.6 9.6ZM0 81.6C0 89.76 6.24 96 14.4 96H81.6C89.76 96 96 89.76 96 81.6V38.4H0V81.6ZM72 48C74.88 48 76.8 49.92 76.8 52.8C76.8 55.68 74.88 57.6 72 57.6C69.12 57.6 67.2 55.68 67.2 52.8C67.2 49.92 69.12 48 72 48ZM72 67.2C74.88 67.2 76.8 69.12 76.8 72C76.8 74.88 74.88 76.8 72 76.8C69.12 76.8 67.2 74.88 67.2 72C67.2 69.12 69.12 67.2 72 67.2ZM48 48C50.88 48 52.8 49.92 52.8 52.8C52.8 55.68 50.88 57.6 48 57.6C45.12 57.6 43.2 55.68 43.2 52.8C43.2 49.92 45.12 48 48 48ZM48 67.2C50.88 67.2 52.8 69.12 52.8 72C52.8 74.88 50.88 76.8 48 76.8C45.12 76.8 43.2 74.88 43.2 72C43.2 69.12 45.12 67.2 48 67.2ZM24 48C26.88 48 28.8 49.92 28.8 52.8C28.8 55.68 26.88 57.6 24 57.6C21.12 57.6 19.2 55.68 19.2 52.8C19.2 49.92 21.12 48 24 48ZM24 67.2C26.88 67.2 28.8 69.12 28.8 72C28.8 74.88 26.88 76.8 24 76.8C21.12 76.8 19.2 74.88 19.2 72C19.2 69.12 21.12 67.2 24 67.2Z" fill="#12AAEB"/>
</svg>
