<svg width="72" height="65" viewBox="0 0 72 65" fill="none" xmlns="http://www.w3.org/2000/svg">
<path d="M36 52.3611C40.5 52.3611 44.3256 50.7806 47.4768 47.6197C50.628 44.4588 52.2024 40.6226 52.2 36.1111C52.2 31.5972 50.6244 27.7598 47.4732 24.5989C44.322 21.438 40.4976 19.8587 36 19.8611C31.5 19.8611 27.6744 21.4416 24.5232 24.6025C21.372 27.7634 19.7976 31.5996 19.8 36.1111C19.8 40.625 21.3756 44.4624 24.5268 47.6233C27.678 50.7843 31.5024 52.3635 36 52.3611ZM36 45.1389C33.48 45.1389 31.35 44.2662 29.61 42.5208C27.87 40.7755 27 38.6389 27 36.1111C27 33.5833 27.87 31.4468 29.61 29.7014C31.35 27.956 33.48 27.0833 36 27.0833C38.52 27.0833 40.65 27.956 42.39 29.7014C44.13 31.4468 45 33.5833 45 36.1111C45 38.6389 44.13 40.7755 42.39 42.5208C40.65 44.2662 38.52 45.1389 36 45.1389ZM7.20001 65C5.22001 65 3.52441 64.2922 2.11321 62.8767C0.702006 61.4611 -0.00239389 59.7615 6.11206e-06 57.7778V14.4444C6.11206e-06 12.4583 0.705606 10.7575 2.11681 9.34194C3.52801 7.92639 5.2224 7.21981 7.20001 7.22222H18.54L25.2 0H46.8L53.46 7.22222H64.8C66.78 7.22222 68.4756 7.93 69.8868 9.34555C71.298 10.7611 72.0024 12.4607 72 14.4444V57.7778C72 59.7639 71.2944 61.4647 69.8832 62.8803C68.472 64.2958 66.7776 65.0024 64.8 65H7.20001ZM7.20001 57.7778H64.8V14.4444H50.22L43.65 7.22222H28.35L21.78 14.4444H7.20001V57.7778Z" fill="#AFAFAF"/>
</svg>
